<svg width="128" height="43" viewBox="0 0 128 43" fill="none" xmlns="http://www.w3.org/2000/svg">
<g clip-path="url(#clip0_75_13725)">
<path d="M35.0065 13.4455C35.3135 13.7543 35.7048 13.9646 36.1308 14.0497C36.5567 14.1349 36.9982 14.0912 37.3995 13.9241C37.8008 13.757 38.1437 13.4741 38.385 13.111C38.6263 12.7479 38.7551 12.3211 38.7551 11.8845C38.7551 11.4479 38.6263 11.021 38.385 10.6579C38.1437 10.2949 37.8008 10.0119 37.3995 9.84479C36.9982 9.67771 36.5567 9.63399 36.1308 9.71919C35.7048 9.80439 35.3135 10.0147 35.0065 10.3235C34.5946 10.7375 34.3633 11.299 34.3633 11.8845C34.3633 12.47 34.5946 13.0315 35.0065 13.4455Z" fill="#FF5678"/>
<path d="M26.4419 17.6145L12.8377 31.2919C12.5486 31.5826 12.3192 31.9276 12.1627 32.3075C12.0062 32.6873 11.9256 33.0943 11.9256 33.5055C11.9256 33.9165 12.006 34.3237 12.1625 34.7035C12.3189 35.0833 12.5483 35.4285 12.8375 35.7192C13.1266 36.0099 13.4698 36.2405 13.8476 36.3979C14.2254 36.5553 14.6303 36.6362 15.0392 36.6363C15.4481 36.6363 15.8531 36.5553 16.2309 36.398C16.6087 36.2408 16.952 36.0102 17.2411 35.7195L22.9911 29.9386C23.2234 29.7646 23.5102 29.6804 23.7992 29.7014C24.0882 29.7222 24.36 29.847 24.5652 30.0526C24.7942 30.2817 24.9241 30.5924 24.9266 30.9173C24.929 31.2421 24.8037 31.5549 24.578 31.7873L20.369 36.019C19.785 36.6061 19.457 37.4024 19.457 38.2327C19.4571 39.063 19.7853 39.8592 20.3692 40.4463C20.9532 41.0333 21.7453 41.3631 22.5711 41.3631C23.397 41.363 24.189 41.0332 24.7729 40.446L36.5052 28.6501C36.6176 28.537 36.7511 28.4474 36.8981 28.3862C37.045 28.3249 37.2024 28.2935 37.3615 28.2935C37.5205 28.2935 37.6779 28.3249 37.8249 28.3862C37.9717 28.4474 38.1053 28.537 38.2177 28.6501C38.3302 28.7631 38.4193 28.8973 38.4802 29.045C38.5411 29.1927 38.5724 29.3511 38.5724 29.511C38.5724 29.6708 38.5411 29.8291 38.4802 29.9768C38.4193 30.1246 38.3302 30.2588 38.2177 30.3718L37.4932 31.0971C36.9093 31.6843 36.5813 32.4805 36.5814 33.3109C36.5814 34.1412 36.9095 34.9374 37.4936 35.5245C38.0775 36.1115 38.8696 36.4413 39.6955 36.4412C40.5213 36.4412 41.3132 36.1113 41.8972 35.5242L46.8179 30.577C47.4019 29.99 47.73 29.1937 47.7301 28.3634C47.7301 27.5331 47.4021 26.7368 46.8182 26.1497C46.2342 25.5625 45.4423 25.2327 44.6164 25.2326C43.7905 25.2326 42.9985 25.5623 42.4145 26.1494L41.7005 26.8698C41.4733 27.098 41.1652 27.2263 40.8439 27.2263C40.5227 27.2262 40.2147 27.0979 39.9876 26.8694C39.7604 26.6411 39.633 26.3313 39.633 26.0084C39.633 25.6854 39.7607 25.3757 39.9879 25.1473L47.3431 17.7563C47.9271 17.1692 48.2551 16.3728 48.255 15.5426C48.2549 14.7122 47.9268 13.916 47.3429 13.3289C46.7588 12.7418 45.9668 12.4121 45.141 12.4122C44.3151 12.4122 43.5231 12.7421 42.9391 13.3292L28.0607 28.2847C27.8295 28.5116 27.5186 28.6377 27.1955 28.6354C26.8724 28.6331 26.5632 28.5026 26.3353 28.2723C26.1308 28.0657 26.007 27.7921 25.9864 27.5014C25.9658 27.2107 26.0498 26.9222 26.2231 26.6886L35.6869 17.1751C36.2583 16.5854 36.5757 15.7932 36.5703 14.9698C36.5649 14.1466 36.2373 13.3585 35.6582 12.7764C35.0791 12.1942 34.2954 11.8648 33.4765 11.8594C32.6576 11.8539 31.8695 12.173 31.2829 12.7475L29.4925 14.5475C29.2624 14.6839 28.9938 14.7397 28.7287 14.7062C28.4637 14.6728 28.2171 14.552 28.0276 14.3627C27.7985 14.1336 27.6686 13.8229 27.6662 13.498C27.6638 13.1731 27.7891 12.8604 28.0147 12.628L35.074 5.53022C35.6454 4.94046 35.9627 4.14816 35.9573 3.3249C35.952 2.50156 35.6242 1.71353 35.0453 1.13138C34.4662 0.54923 33.6823 0.219809 32.8635 0.214423C32.0446 0.209036 31.2566 0.528113 30.67 1.10257L18.9352 12.8985C18.7081 13.1268 18.4 13.2551 18.0788 13.255C17.7575 13.2549 17.4496 13.1266 17.2224 12.8982C16.9953 12.6698 16.8677 12.36 16.8678 12.0371C16.8679 11.7142 16.9956 11.4044 17.2227 11.1761L20.5185 7.86507C20.8164 7.57643 21.054 7.23102 21.2175 6.84893C21.3811 6.46693 21.4672 6.05595 21.471 5.64C21.4749 5.22414 21.3961 4.81162 21.2396 4.42662C21.083 4.04163 20.8518 3.69186 20.5592 3.39775C20.2667 3.10364 19.9188 2.87108 19.5359 2.71368C19.1529 2.55628 18.7426 2.4772 18.3289 2.48104C17.9153 2.48481 17.5065 2.5715 17.1265 2.73591C16.7465 2.90032 16.4029 3.1392 16.1158 3.4387L8.62563 10.9685C8.04168 11.5555 7.71354 12.3518 7.71346 13.1821C7.71346 13.5931 7.79391 14.0003 7.95037 14.3801C8.10683 14.7599 8.33622 15.1051 8.62537 15.3958C8.91444 15.6865 9.25771 15.9171 9.63552 16.0744C10.0133 16.2318 10.4182 16.3128 10.8271 16.3129C11.6529 16.3129 12.445 15.9831 13.029 15.3961L13.7419 14.6794C13.969 14.451 14.277 14.3227 14.5982 14.3226C14.9194 14.3225 15.2276 14.4508 15.4547 14.6791C15.6819 14.9074 15.8095 15.2172 15.8096 15.5401C15.8096 15.863 15.6821 16.1728 15.455 16.4011L8.09974 23.7923C7.52836 24.3821 7.21099 25.1744 7.21638 25.9976C7.22176 26.8209 7.54939 27.6089 8.12846 28.191C8.70754 28.7732 9.49129 29.1026 10.3102 29.1081C11.1291 29.1135 11.9171 28.7944 12.5037 28.2199L24.5314 16.1294C24.7627 15.9025 25.0736 15.7766 25.3968 15.779C25.7199 15.7814 26.029 15.912 26.2568 16.1423C26.4452 16.3326 26.5655 16.5803 26.599 16.8467C26.6325 17.1131 26.5773 17.3831 26.4419 17.6145Z" fill="#FF5678"/>
</g>
<path d="M71.628 11.4183L64.348 11.8103L62.836 15.5903L60.764 15.3103L61.408 9.7943H75.604L76.276 11.2783L66.14 27.0143L64.208 28.9463L72.832 28.3863L74.4 24.0463L76.528 24.4663L75.884 30.6543H60.484L59.616 29.1703L69.976 13.3503L71.628 11.4183ZM85.6637 30.9623C83.1997 30.9623 81.361 30.2436 80.1477 28.8063C78.953 27.3503 78.3557 25.3716 78.3557 22.8703C78.3557 21.1903 78.6637 19.7343 79.2797 18.5023C79.9143 17.2703 80.801 16.3276 81.9397 15.6743C83.0783 15.021 84.3943 14.6943 85.8877 14.6943C87.7543 14.6943 89.1917 15.189 90.1997 16.1783C91.2077 17.149 91.7303 18.5396 91.7677 20.3503C91.7677 21.5823 91.693 22.497 91.5437 23.0943H82.4437C82.5183 24.793 82.9197 26.1183 83.6477 27.0703C84.3757 28.0036 85.4117 28.4703 86.7557 28.4703C87.4837 28.4703 88.2303 28.349 88.9957 28.1063C89.7797 27.8636 90.3957 27.5743 90.8437 27.2383L91.5437 28.7783C91.0397 29.3196 90.2183 29.8236 89.0797 30.2903C87.9597 30.7383 86.821 30.9623 85.6637 30.9623ZM87.8477 21.4143C87.885 20.8916 87.9037 20.4903 87.9037 20.2103C87.9037 17.7276 87.073 16.4863 85.4117 16.4863C84.497 16.4863 83.7877 16.8503 83.2837 17.5783C82.7797 18.3063 82.4997 19.585 82.4437 21.4143H87.8477ZM92.7422 8.3103L97.8662 7.6943H97.9222L98.7062 8.2263V16.4863C99.2102 15.9823 99.8262 15.5623 100.554 15.2263C101.301 14.8716 102.104 14.6943 102.962 14.6943C104.754 14.6943 106.21 15.329 107.33 16.5983C108.469 17.849 109.038 19.7716 109.038 22.3663C109.038 23.9716 108.702 25.4276 108.03 26.7343C107.358 28.041 106.388 29.077 105.118 29.8423C103.868 30.589 102.412 30.9623 100.75 30.9623C99.2755 30.9623 97.9969 30.841 96.9142 30.5983C95.8315 30.337 95.1409 30.1036 94.8422 29.8983V10.1023L92.7422 9.7663V8.3103ZM101.478 17.1583C100.918 17.1583 100.386 17.289 99.8822 17.5503C99.3969 17.793 99.0049 18.073 98.7062 18.3903V28.6103C98.8182 28.8156 99.0795 28.9836 99.4902 29.1143C99.9009 29.245 100.368 29.3103 100.89 29.3103C102.085 29.3103 103.037 28.7596 103.746 27.6583C104.474 26.5383 104.838 24.8863 104.838 22.7023C104.838 20.817 104.53 19.4263 103.914 18.5303C103.298 17.6156 102.486 17.1583 101.478 17.1583ZM110.051 8.3103L115.175 7.6943H115.231L116.015 8.2263V16.4863C116.519 15.9823 117.135 15.5623 117.863 15.2263C118.609 14.8716 119.412 14.6943 120.271 14.6943C122.063 14.6943 123.519 15.329 124.639 16.5983C125.777 17.849 126.347 19.7716 126.347 22.3663C126.347 23.9716 126.011 25.4276 125.339 26.7343C124.667 28.041 123.696 29.077 122.427 29.8423C121.176 30.589 119.72 30.9623 118.059 30.9623C116.584 30.9623 115.305 30.841 114.223 30.5983C113.14 30.337 112.449 30.1036 112.151 29.8983V10.1023L110.051 9.7663V8.3103ZM118.787 17.1583C118.227 17.1583 117.695 17.289 117.191 17.5503C116.705 17.793 116.313 18.073 116.015 18.3903V28.6103C116.127 28.8156 116.388 28.9836 116.799 29.1143C117.209 29.245 117.676 29.3103 118.199 29.3103C119.393 29.3103 120.345 28.7596 121.055 27.6583C121.783 26.5383 122.147 24.8863 122.147 22.7023C122.147 20.817 121.839 19.4263 121.223 18.5303C120.607 17.6156 119.795 17.1583 118.787 17.1583Z" fill="#FF5678"/>
<defs>
<clipPath id="clip0_75_13725">
<rect width="55" height="42" fill="white" transform="translate(0 0.154297)"/>
</clipPath>
</defs>
</svg>
